<?xml version="1.0" encoding="UTF-8" standalone="no"?>
<!DOCTYPE svg PUBLIC "-//W3C//DTD SVG 1.1//EN"
 "http://www.w3.org/Graphics/SVG/1.1/DTD/svg11.dtd">
<!-- Generated by graphviz version 2.42.3 (20191010.1750)
 -->
<!-- Title: %3 Pages: 1 -->
<svg width="428pt" height="98pt"
 viewBox="0.00 0.00 427.88 98.00" xmlns="http://www.w3.org/2000/svg" xmlns:xlink="http://www.w3.org/1999/xlink">
<g id="graph0" class="graph" transform="scale(1 1) rotate(0) translate(4 94)">
<title>%3</title>
<polygon fill="white" stroke="transparent" points="-4,4 -4,-94 423.88,-94 423.88,4 -4,4"/>
<!-- 000 -->
<g id="node1" class="node">
<title>000</title>
<ellipse fill="none" stroke="black" cx="157.44" cy="-72" rx="27" ry="18"/>
<text text-anchor="middle" x="157.44" y="-67.8" font-family="Times,serif" font-size="14.00">000</text>
</g>
<!-- 001 -->
<g id="node2" class="node">
<title>001</title>
<ellipse fill="none" stroke="black" cx="254.44" cy="-72" rx="27" ry="18"/>
<text text-anchor="middle" x="254.44" y="-67.8" font-family="Times,serif" font-size="14.00">001</text>
</g>
<!-- 000&#45;&gt;001 -->
<g id="edge1" class="edge">
<title>000&#45;&gt;001</title>
<path fill="none" stroke="black" d="M184.65,-72C194.72,-72 206.41,-72 217.25,-72"/>
<polygon fill="black" stroke="black" points="217.32,-75.5 227.32,-72 217.32,-68.5 217.32,-75.5"/>
<text text-anchor="middle" x="205.94" y="-74.8" font-family="Times,serif" font-size="14.00">a</text>
</g>
<!-- 01 -->
<g id="node5" class="node">
<title>01</title>
<ellipse fill="none" stroke="black" cx="388.88" cy="-44" rx="27" ry="18"/>
<ellipse fill="none" stroke="black" cx="388.88" cy="-44" rx="31" ry="22"/>
<text text-anchor="middle" x="388.88" y="-39.8" font-family="Times,serif" font-size="14.00">01</text>
</g>
<!-- 001&#45;&gt;01 -->
<g id="edge6" class="edge">
<title>001&#45;&gt;01</title>
<path fill="none" stroke="black" d="M280.35,-66.73C299.72,-62.64 326.93,-56.89 349.13,-52.19"/>
<polygon fill="black" stroke="black" points="349.87,-55.61 358.93,-50.12 348.43,-48.76 349.87,-55.61"/>
<text text-anchor="middle" x="319.66" y="-64.8" font-family="Times,serif" font-size="14.00">epsilon</text>
</g>
<!-- 010 -->
<g id="node3" class="node">
<title>010</title>
<ellipse fill="none" stroke="black" cx="157.44" cy="-18" rx="27" ry="18"/>
<text text-anchor="middle" x="157.44" y="-13.8" font-family="Times,serif" font-size="14.00">010</text>
</g>
<!-- 011 -->
<g id="node4" class="node">
<title>011</title>
<ellipse fill="none" stroke="black" cx="254.44" cy="-18" rx="27" ry="18"/>
<text text-anchor="middle" x="254.44" y="-13.8" font-family="Times,serif" font-size="14.00">011</text>
</g>
<!-- 010&#45;&gt;011 -->
<g id="edge2" class="edge">
<title>010&#45;&gt;011</title>
<path fill="none" stroke="black" d="M184.65,-18C194.72,-18 206.41,-18 217.25,-18"/>
<polygon fill="black" stroke="black" points="217.32,-21.5 227.32,-18 217.32,-14.5 217.32,-21.5"/>
<text text-anchor="middle" x="205.94" y="-20.8" font-family="Times,serif" font-size="14.00">b</text>
</g>
<!-- 011&#45;&gt;01 -->
<g id="edge3" class="edge">
<title>011&#45;&gt;01</title>
<path fill="none" stroke="black" d="M281.07,-21.19C297.88,-23.46 320.29,-26.85 339.88,-31 343.13,-31.69 346.49,-32.46 349.86,-33.28"/>
<polygon fill="black" stroke="black" points="349.28,-36.75 359.84,-35.84 351.02,-29.97 349.28,-36.75"/>
<text text-anchor="middle" x="319.66" y="-33.8" font-family="Times,serif" font-size="14.00">epsilon</text>
</g>
<!-- 00 -->
<g id="node6" class="node">
<title>00</title>
<ellipse fill="none" stroke="black" cx="27" cy="-44" rx="27" ry="18"/>
<text text-anchor="middle" x="27" y="-39.8" font-family="Times,serif" font-size="14.00">00</text>
</g>
<!-- 00&#45;&gt;000 -->
<g id="edge4" class="edge">
<title>00&#45;&gt;000</title>
<path fill="none" stroke="black" d="M52.76,-49.4C72.27,-53.65 99.71,-59.63 121.46,-64.37"/>
<polygon fill="black" stroke="black" points="120.8,-67.81 131.31,-66.52 122.29,-60.97 120.8,-67.81"/>
<text text-anchor="middle" x="92.22" y="-64.8" font-family="Times,serif" font-size="14.00">epsilon</text>
</g>
<!-- 00&#45;&gt;010 -->
<g id="edge5" class="edge">
<title>00&#45;&gt;010</title>
<path fill="none" stroke="black" d="M51.6,-36.39C58.16,-34.45 65.31,-32.5 72,-31 87.88,-27.45 105.65,-24.55 120.78,-22.41"/>
<polygon fill="black" stroke="black" points="121.34,-25.86 130.78,-21.04 120.4,-18.93 121.34,-25.86"/>
<text text-anchor="middle" x="92.22" y="-33.8" font-family="Times,serif" font-size="14.00">epsilon</text>
</g>
</g>
</svg>
