<?xml version="1.0" encoding="UTF-8" standalone="no"?>
<!DOCTYPE svg PUBLIC "-//W3C//DTD SVG 1.1//EN"
 "http://www.w3.org/Graphics/SVG/1.1/DTD/svg11.dtd">
<!-- Generated by graphviz version 2.42.3 (20191010.1750)
 -->
<!-- Title: %3 Pages: 1 -->
<svg width="606pt" height="180pt"
 viewBox="0.00 0.00 605.98 179.89" xmlns="http://www.w3.org/2000/svg" xmlns:xlink="http://www.w3.org/1999/xlink">
<g id="graph0" class="graph" transform="scale(1 1) rotate(0) translate(4 175.89)">
<title>%3</title>
<polygon fill="white" stroke="transparent" points="-4,4 -4,-175.89 601.98,-175.89 601.98,4 -4,4"/>
<!-- 013 -->
<g id="node1" class="node">
<title>013</title>
<ellipse fill="none" stroke="black" cx="465.98" cy="-99.89" rx="27" ry="18"/>
<text text-anchor="middle" x="465.98" y="-95.69" font-family="Times,serif" font-size="14.00">013</text>
</g>
<!-- 01 -->
<g id="node2" class="node">
<title>01</title>
<ellipse fill="none" stroke="black" cx="566.98" cy="-99.89" rx="27" ry="18"/>
<ellipse fill="none" stroke="black" cx="566.98" cy="-99.89" rx="31" ry="22"/>
<text text-anchor="middle" x="566.98" y="-95.69" font-family="Times,serif" font-size="14.00">01</text>
</g>
<!-- 013&#45;&gt;01 -->
<g id="edge1" class="edge">
<title>013&#45;&gt;01</title>
<path fill="none" stroke="black" d="M492.99,-99.89C502.97,-99.89 514.62,-99.89 525.64,-99.89"/>
<polygon fill="black" stroke="black" points="525.93,-103.39 535.93,-99.89 525.93,-96.39 525.93,-103.39"/>
<text text-anchor="start" x="510.98" y="-102.69" font-family="Times,serif" font-size="14.00">λ</text>
</g>
<!-- 002 -->
<g id="node3" class="node">
<title>002</title>
<ellipse fill="none" stroke="black" cx="393.98" cy="-153.89" rx="27" ry="18"/>
<text text-anchor="middle" x="393.98" y="-149.69" font-family="Times,serif" font-size="14.00">002</text>
</g>
<!-- 002&#45;&gt;01 -->
<g id="edge2" class="edge">
<title>002&#45;&gt;01</title>
<path fill="none" stroke="black" d="M419.7,-147.64C439.61,-142.48 468.25,-134.74 492.98,-126.89 504.23,-123.32 506.89,-121.97 517.98,-117.89 521.77,-116.5 525.72,-115.03 529.67,-113.57"/>
<polygon fill="black" stroke="black" points="531.2,-116.73 539.34,-109.95 528.75,-110.17 531.2,-116.73"/>
<text text-anchor="start" x="462.48" y="-144.69" font-family="Times,serif" font-size="14.00">λ</text>
</g>
<!-- 00 -->
<g id="node4" class="node">
<title>00</title>
<ellipse fill="none" stroke="black" cx="27" cy="-99.89" rx="27" ry="18"/>
<text text-anchor="middle" x="27" y="-95.69" font-family="Times,serif" font-size="14.00">00</text>
</g>
<!-- 000 -->
<g id="node5" class="node">
<title>000</title>
<ellipse fill="none" stroke="black" cx="124.79" cy="-153.89" rx="27" ry="18"/>
<text text-anchor="middle" x="124.79" y="-149.69" font-family="Times,serif" font-size="14.00">000</text>
</g>
<!-- 00&#45;&gt;000 -->
<g id="edge3" class="edge">
<title>00&#45;&gt;000</title>
<path fill="none" stroke="black" d="M48.32,-111.34C61.78,-118.93 79.65,-129.01 94.62,-137.45"/>
<polygon fill="black" stroke="black" points="93.08,-140.6 103.51,-142.46 96.52,-134.5 93.08,-140.6"/>
<text text-anchor="start" x="72" y="-130.69" font-family="Times,serif" font-size="14.00">λ</text>
</g>
<!-- 010 -->
<g id="node6" class="node">
<title>010</title>
<ellipse fill="none" stroke="black" cx="124.79" cy="-99.89" rx="27" ry="18"/>
<text text-anchor="middle" x="124.79" y="-95.69" font-family="Times,serif" font-size="14.00">010</text>
</g>
<!-- 00&#45;&gt;010 -->
<g id="edge4" class="edge">
<title>00&#45;&gt;010</title>
<path fill="none" stroke="black" d="M54.18,-99.89C64.42,-99.89 76.34,-99.89 87.4,-99.89"/>
<polygon fill="black" stroke="black" points="87.65,-103.39 97.65,-99.89 87.65,-96.39 87.65,-103.39"/>
<text text-anchor="start" x="72" y="-102.69" font-family="Times,serif" font-size="14.00">λ</text>
</g>
<!-- 0200 -->
<g id="node7" class="node">
<title>0200</title>
<ellipse fill="none" stroke="black" cx="124.79" cy="-45.89" rx="27.59" ry="18"/>
<text text-anchor="middle" x="124.79" y="-41.69" font-family="Times,serif" font-size="14.00">0200</text>
</g>
<!-- 00&#45;&gt;0200 -->
<g id="edge5" class="edge">
<title>00&#45;&gt;0200</title>
<path fill="none" stroke="black" d="M48.32,-88.44C61.69,-80.9 79.41,-70.91 94.32,-62.51"/>
<polygon fill="black" stroke="black" points="96.18,-65.47 103.18,-57.51 92.75,-59.38 96.18,-65.47"/>
<text text-anchor="start" x="72" y="-76.69" font-family="Times,serif" font-size="14.00">λ</text>
</g>
<!-- 001 -->
<g id="node9" class="node">
<title>001</title>
<ellipse fill="none" stroke="black" cx="222.6" cy="-153.89" rx="27" ry="18"/>
<text text-anchor="middle" x="222.6" y="-149.69" font-family="Times,serif" font-size="14.00">001</text>
</g>
<!-- 000&#45;&gt;001 -->
<g id="edge11" class="edge">
<title>000&#45;&gt;001</title>
<path fill="none" stroke="black" d="M151.97,-153.89C162.22,-153.89 174.14,-153.89 185.2,-153.89"/>
<polygon fill="black" stroke="black" points="185.45,-157.39 195.45,-153.89 185.45,-150.39 185.45,-157.39"/>
<text text-anchor="middle" x="173.69" y="-156.69" font-family="Times,serif" font-size="14.00">c</text>
</g>
<!-- 011 -->
<g id="node8" class="node">
<title>011</title>
<ellipse fill="none" stroke="black" cx="222.6" cy="-99.89" rx="27" ry="18"/>
<text text-anchor="middle" x="222.6" y="-95.69" font-family="Times,serif" font-size="14.00">011</text>
</g>
<!-- 010&#45;&gt;011 -->
<g id="edge6" class="edge">
<title>010&#45;&gt;011</title>
<path fill="none" stroke="black" d="M151.97,-99.89C162.22,-99.89 174.14,-99.89 185.2,-99.89"/>
<polygon fill="black" stroke="black" points="185.45,-103.39 195.45,-99.89 185.45,-96.39 185.45,-103.39"/>
<text text-anchor="middle" x="173.69" y="-102.69" font-family="Times,serif" font-size="14.00">e</text>
</g>
<!-- 0201 -->
<g id="node11" class="node">
<title>0201</title>
<ellipse fill="none" stroke="black" cx="222.6" cy="-45.89" rx="27.59" ry="18"/>
<text text-anchor="middle" x="222.6" y="-41.69" font-family="Times,serif" font-size="14.00">0201</text>
</g>
<!-- 0200&#45;&gt;0201 -->
<g id="edge14" class="edge">
<title>0200&#45;&gt;0201</title>
<path fill="none" stroke="black" d="M152.73,-45.89C162.53,-45.89 173.78,-45.89 184.31,-45.89"/>
<polygon fill="black" stroke="black" points="184.52,-49.39 194.52,-45.89 184.52,-42.39 184.52,-49.39"/>
<text text-anchor="middle" x="173.69" y="-48.69" font-family="Times,serif" font-size="14.00">a</text>
</g>
<!-- 012 -->
<g id="node10" class="node">
<title>012</title>
<ellipse fill="none" stroke="black" cx="321.18" cy="-99.89" rx="27" ry="18"/>
<text text-anchor="middle" x="321.18" y="-95.69" font-family="Times,serif" font-size="14.00">012</text>
</g>
<!-- 011&#45;&gt;012 -->
<g id="edge8" class="edge">
<title>011&#45;&gt;012</title>
<path fill="none" stroke="black" d="M249.73,-99.89C260.26,-99.89 272.57,-99.89 283.93,-99.89"/>
<polygon fill="black" stroke="black" points="284.02,-103.39 294.02,-99.89 284.02,-96.39 284.02,-103.39"/>
<text text-anchor="middle" x="271.89" y="-102.69" font-family="Times,serif" font-size="14.00">f</text>
</g>
<!-- 001&#45;&gt;002 -->
<g id="edge7" class="edge">
<title>001&#45;&gt;002</title>
<path fill="none" stroke="black" d="M249.69,-153.89C278.29,-153.89 324.37,-153.89 356.53,-153.89"/>
<polygon fill="black" stroke="black" points="356.85,-157.39 366.85,-153.89 356.85,-150.39 356.85,-157.39"/>
<text text-anchor="middle" x="271.89" y="-156.69" font-family="Times,serif" font-size="14.00">d</text>
</g>
<!-- 012&#45;&gt;013 -->
<g id="edge9" class="edge">
<title>012&#45;&gt;013</title>
<path fill="none" stroke="black" d="M348.37,-99.89C370.92,-99.89 403.68,-99.89 428.74,-99.89"/>
<polygon fill="black" stroke="black" points="428.95,-103.39 438.95,-99.89 428.95,-96.39 428.95,-103.39"/>
<text text-anchor="middle" x="393.98" y="-102.69" font-family="Times,serif" font-size="14.00">f</text>
</g>
<!-- 0202 -->
<g id="node12" class="node">
<title>0202</title>
<ellipse fill="none" stroke="black" cx="321.18" cy="-45.89" rx="27.59" ry="18"/>
<text text-anchor="middle" x="321.18" y="-41.69" font-family="Times,serif" font-size="14.00">0202</text>
</g>
<!-- 0201&#45;&gt;0202 -->
<g id="edge10" class="edge">
<title>0201&#45;&gt;0202</title>
<path fill="none" stroke="black" d="M250.5,-45.89C260.57,-45.89 272.19,-45.89 283.02,-45.89"/>
<polygon fill="black" stroke="black" points="283.09,-49.39 293.09,-45.89 283.09,-42.39 283.09,-49.39"/>
<text text-anchor="middle" x="271.89" y="-48.69" font-family="Times,serif" font-size="14.00">b</text>
</g>
<!-- 0202&#45;&gt;01 -->
<g id="edge13" class="edge">
<title>0202&#45;&gt;01</title>
<path fill="none" stroke="black" d="M349.17,-44.4C383.4,-43.3 443.88,-44.03 492.98,-58.89 507.87,-63.4 523.06,-71.3 535.71,-78.98"/>
<polygon fill="black" stroke="black" points="534.1,-82.1 544.43,-84.47 537.84,-76.18 534.1,-82.1"/>
<text text-anchor="start" x="462.48" y="-61.69" font-family="Times,serif" font-size="14.00">λ</text>
</g>
<!-- 0202&#45;&gt;0200 -->
<g id="edge12" class="edge">
<title>0202&#45;&gt;0200</title>
<path fill="none" stroke="black" d="M303.01,-32.27C289.56,-22.51 269.92,-10.2 250.39,-4.89 226.55,1.59 218.62,1.65 194.8,-4.89 179.34,-9.14 163.83,-17.85 151.45,-26.16"/>
<polygon fill="black" stroke="black" points="149.21,-23.46 143.03,-32.06 153.22,-29.19 149.21,-23.46"/>
<text text-anchor="start" x="219.1" y="-7.69" font-family="Times,serif" font-size="14.00">λ</text>
</g>
</g>
</svg>
