<?xml version="1.0" encoding="UTF-8" standalone="no"?>
<!DOCTYPE svg PUBLIC "-//W3C//DTD SVG 1.1//EN"
 "http://www.w3.org/Graphics/SVG/1.1/DTD/svg11.dtd">
<!-- Generated by graphviz version 2.42.3 (20191010.1750)
 -->
<!-- Title: %3 Pages: 1 -->
<svg width="200pt" height="52pt"
 viewBox="0.00 0.00 200.44 52.00" xmlns="http://www.w3.org/2000/svg" xmlns:xlink="http://www.w3.org/1999/xlink">
<g id="graph0" class="graph" transform="scale(1 1) rotate(0) translate(4 48)">
<title>%3</title>
<polygon fill="white" stroke="transparent" points="-4,4 -4,-48 196.44,-48 196.44,4 -4,4"/>
<!-- 00 -->
<g id="node1" class="node">
<title>00</title>
<ellipse fill="none" stroke="black" cx="27" cy="-22" rx="27" ry="18"/>
<text text-anchor="middle" x="27" y="-17.8" font-family="Times,serif" font-size="14.00">00</text>
</g>
<!-- 01 -->
<g id="node2" class="node">
<title>01</title>
<ellipse fill="none" stroke="black" cx="161.44" cy="-22" rx="27" ry="18"/>
<ellipse fill="none" stroke="black" cx="161.44" cy="-22" rx="31" ry="22"/>
<text text-anchor="middle" x="161.44" y="-17.8" font-family="Times,serif" font-size="14.00">01</text>
</g>
<!-- 00&#45;&gt;01 -->
<g id="edge1" class="edge">
<title>00&#45;&gt;01</title>
<path fill="none" stroke="black" d="M54.17,-22C72.95,-22 98.63,-22 120.04,-22"/>
<polygon fill="black" stroke="black" points="120.16,-25.5 130.16,-22 120.16,-18.5 120.16,-25.5"/>
<text text-anchor="middle" x="92.22" y="-24.8" font-family="Times,serif" font-size="14.00">1</text>
</g>
<!-- 01&#45;&gt;00 -->
<g id="edge2" class="edge">
<title>01&#45;&gt;00</title>
<path fill="none" stroke="black" d="M134.77,-10.44C127.68,-7.79 119.89,-5.35 112.44,-4 94.76,-0.79 89.64,-0.53 72,-4 67.51,-4.88 62.89,-6.23 58.42,-7.8"/>
<polygon fill="black" stroke="black" points="57.01,-4.59 48.97,-11.49 59.56,-11.11 57.01,-4.59"/>
<text text-anchor="middle" x="92.22" y="-6.8" font-family="Times,serif" font-size="14.00">epsilon</text>
</g>
</g>
</svg>
