<?xml version="1.0" encoding="UTF-8" standalone="no"?>
<!DOCTYPE svg PUBLIC "-//W3C//DTD SVG 1.1//EN"
 "http://www.w3.org/Graphics/SVG/1.1/DTD/svg11.dtd">
<!-- Generated by graphviz version 2.42.3 (20191010.1750)
 -->
<!-- Title: %3 Pages: 1 -->
<svg width="559pt" height="199pt"
 viewBox="0.00 0.00 559.11 199.00" xmlns="http://www.w3.org/2000/svg" xmlns:xlink="http://www.w3.org/1999/xlink">
<g id="graph0" class="graph" transform="scale(1 1) rotate(0) translate(4 195)">
<title>%3</title>
<polygon fill="white" stroke="transparent" points="-4,4 -4,-195 555.11,-195 555.11,4 -4,4"/>
<!-- 0001 -->
<g id="node1" class="node">
<title>0001</title>
<ellipse fill="none" stroke="black" cx="27.79" cy="-28" rx="27.59" ry="18"/>
<text text-anchor="middle" x="27.79" y="-23.8" font-family="Times,serif" font-size="14.00">0001</text>
</g>
<!-- 001 -->
<g id="node2" class="node">
<title>001</title>
<ellipse fill="none" stroke="black" cx="125.59" cy="-100" rx="27" ry="18"/>
<text text-anchor="middle" x="125.59" y="-95.8" font-family="Times,serif" font-size="14.00">001</text>
</g>
<!-- 0001&#45;&gt;001 -->
<g id="edge1" class="edge">
<title>0001&#45;&gt;001</title>
<path fill="none" stroke="black" d="M46.81,-41.54C61.49,-52.57 82.4,-68.29 98.84,-80.65"/>
<polygon fill="black" stroke="black" points="96.88,-83.55 106.97,-86.76 101.08,-77.96 96.88,-83.55"/>
<text text-anchor="start" x="73.59" y="-69.8" font-family="Times,serif" font-size="14.00">λ</text>
</g>
<!-- 000 -->
<g id="node4" class="node">
<title>000</title>
<ellipse fill="none" stroke="black" cx="222.59" cy="-77" rx="27" ry="18"/>
<text text-anchor="middle" x="222.59" y="-72.8" font-family="Times,serif" font-size="14.00">000</text>
</g>
<!-- 001&#45;&gt;000 -->
<g id="edge9" class="edge">
<title>001&#45;&gt;000</title>
<path fill="none" stroke="black" d="M151.55,-93.96C162.35,-91.34 175.17,-88.24 186.88,-85.4"/>
<polygon fill="black" stroke="black" points="187.9,-88.76 196.79,-83 186.25,-81.95 187.9,-88.76"/>
<text text-anchor="start" x="170.59" y="-92.8" font-family="Times,serif" font-size="14.00">λ</text>
</g>
<!-- 10 -->
<g id="node7" class="node">
<title>10</title>
<ellipse fill="none" stroke="black" cx="222.59" cy="-169" rx="27" ry="18"/>
<text text-anchor="middle" x="222.59" y="-164.8" font-family="Times,serif" font-size="14.00">10</text>
</g>
<!-- 001&#45;&gt;10 -->
<g id="edge10" class="edge">
<title>001&#45;&gt;10</title>
<path fill="none" stroke="black" d="M142.45,-114.26C150.64,-121.38 160.91,-129.95 170.59,-137 177.6,-142.11 185.42,-147.27 192.79,-151.91"/>
<polygon fill="black" stroke="black" points="191.45,-155.19 201.8,-157.46 195.12,-149.23 191.45,-155.19"/>
<text text-anchor="start" x="170.59" y="-143.8" font-family="Times,serif" font-size="14.00">λ</text>
</g>
<!-- 0011 -->
<g id="node3" class="node">
<title>0011</title>
<ellipse fill="none" stroke="black" cx="418.64" cy="-96" rx="27.44" ry="18"/>
<text text-anchor="middle" x="418.64" y="-91.8" font-family="Times,serif" font-size="14.00">0011</text>
</g>
<!-- 0011&#45;&gt;001 -->
<g id="edge2" class="edge">
<title>0011&#45;&gt;001</title>
<path fill="none" stroke="black" d="M392.87,-102.54C386.5,-103.96 379.62,-105.25 373.18,-106 286.82,-116.04 264.52,-107.56 177.59,-108 174.48,-108.02 173.69,-108.28 170.59,-108 167.69,-107.74 164.69,-107.38 161.69,-106.96"/>
<polygon fill="black" stroke="black" points="162.04,-103.47 151.61,-105.35 160.93,-110.39 162.04,-103.47"/>
<text text-anchor="start" x="267.59" y="-113.8" font-family="Times,serif" font-size="14.00">λ</text>
</g>
<!-- 0000 -->
<g id="node5" class="node">
<title>0000</title>
<ellipse fill="none" stroke="black" cx="320.38" cy="-18" rx="27.59" ry="18"/>
<text text-anchor="middle" x="320.38" y="-13.8" font-family="Times,serif" font-size="14.00">0000</text>
</g>
<!-- 000&#45;&gt;0000 -->
<g id="edge3" class="edge">
<title>000&#45;&gt;0000</title>
<path fill="none" stroke="black" d="M242.97,-65.06C256.77,-56.56 275.54,-45 291.02,-35.47"/>
<polygon fill="black" stroke="black" points="293.02,-38.35 299.7,-30.12 289.35,-32.39 293.02,-38.35"/>
<text text-anchor="start" x="267.59" y="-52.8" font-family="Times,serif" font-size="14.00">λ</text>
</g>
<!-- 0010 -->
<g id="node6" class="node">
<title>0010</title>
<ellipse fill="none" stroke="black" cx="320.38" cy="-77" rx="27.59" ry="18"/>
<text text-anchor="middle" x="320.38" y="-72.8" font-family="Times,serif" font-size="14.00">0010</text>
</g>
<!-- 000&#45;&gt;0010 -->
<g id="edge4" class="edge">
<title>000&#45;&gt;0010</title>
<path fill="none" stroke="black" d="M249.76,-77C259.84,-77 271.54,-77 282.44,-77"/>
<polygon fill="black" stroke="black" points="282.57,-80.5 292.57,-77 282.57,-73.5 282.57,-80.5"/>
<text text-anchor="start" x="267.59" y="-79.8" font-family="Times,serif" font-size="14.00">λ</text>
</g>
<!-- 0000&#45;&gt;0001 -->
<g id="edge6" class="edge">
<title>0000&#45;&gt;0001</title>
<path fill="none" stroke="black" d="M292.21,-18.94C239.83,-20.74 124.86,-24.69 65.65,-26.73"/>
<polygon fill="black" stroke="black" points="65.48,-23.24 55.61,-27.08 65.73,-30.23 65.48,-23.24"/>
<text text-anchor="middle" x="174.09" y="-26.8" font-family="Times,serif" font-size="14.00">0</text>
</g>
<!-- 0010&#45;&gt;0011 -->
<g id="edge8" class="edge">
<title>0010&#45;&gt;0011</title>
<path fill="none" stroke="black" d="M347.18,-82.09C357.95,-84.22 370.63,-86.72 382.25,-89.01"/>
<polygon fill="black" stroke="black" points="381.62,-92.46 392.11,-90.96 382.98,-85.59 381.62,-92.46"/>
<text text-anchor="middle" x="369.68" y="-90.8" font-family="Times,serif" font-size="14.00">1</text>
</g>
<!-- 11 -->
<g id="node8" class="node">
<title>11</title>
<ellipse fill="none" stroke="black" cx="320.38" cy="-169" rx="27" ry="18"/>
<text text-anchor="middle" x="320.38" y="-164.8" font-family="Times,serif" font-size="14.00">11</text>
</g>
<!-- 10&#45;&gt;11 -->
<g id="edge5" class="edge">
<title>10&#45;&gt;11</title>
<path fill="none" stroke="black" d="M249.76,-169C260.01,-169 271.93,-169 282.99,-169"/>
<polygon fill="black" stroke="black" points="283.24,-172.5 293.24,-169 283.24,-165.5 283.24,-172.5"/>
<text text-anchor="middle" x="271.09" y="-171.8" font-family="Times,serif" font-size="14.00">1</text>
</g>
<!-- 12 -->
<g id="node9" class="node">
<title>12</title>
<ellipse fill="none" stroke="black" cx="418.64" cy="-169" rx="27" ry="18"/>
<text text-anchor="middle" x="418.64" y="-164.8" font-family="Times,serif" font-size="14.00">12</text>
</g>
<!-- 11&#45;&gt;12 -->
<g id="edge7" class="edge">
<title>11&#45;&gt;12</title>
<path fill="none" stroke="black" d="M347.43,-169C357.92,-169 370.19,-169 381.52,-169"/>
<polygon fill="black" stroke="black" points="381.57,-172.5 391.57,-169 381.57,-165.5 381.57,-172.5"/>
<text text-anchor="middle" x="369.68" y="-171.8" font-family="Times,serif" font-size="14.00">1</text>
</g>
<!-- 13 -->
<g id="node10" class="node">
<title>13</title>
<ellipse fill="none" stroke="black" cx="520.11" cy="-169" rx="27" ry="18"/>
<ellipse fill="none" stroke="black" cx="520.11" cy="-169" rx="31" ry="22"/>
<text text-anchor="middle" x="520.11" y="-164.8" font-family="Times,serif" font-size="14.00">13</text>
</g>
<!-- 12&#45;&gt;13 -->
<g id="edge11" class="edge">
<title>12&#45;&gt;13</title>
<path fill="none" stroke="black" d="M445.78,-169C455.92,-169 467.75,-169 478.93,-169"/>
<polygon fill="black" stroke="black" points="478.93,-172.5 488.93,-169 478.93,-165.5 478.93,-172.5"/>
<text text-anchor="middle" x="467.61" y="-171.8" font-family="Times,serif" font-size="14.00">1</text>
</g>
</g>
</svg>
